<svg width="24" height="24" viewBox="0 0 24 24" fill="none" xmlns="http://www.w3.org/2000/svg">
<g clip-path="url(#clip0_1044_480)">
<path fill-rule="evenodd" clip-rule="evenodd" d="M19.0571 8.00001C18.196 7.99862 17.3599 8.28913 16.6851 8.82414C16.0104 8.28909 15.1742 7.99858 14.3131 8.00001C13.452 7.99867 12.6159 8.28918 11.9412 8.82414C11.2665 8.28907 10.4304 7.99855 9.56926 8.00001C8.70819 7.99867 7.87208 8.28918 7.19735 8.82414C6.52262 8.28916 5.68651 7.99865 4.82544 8.00001C2.71238 8.00001 1 9.71226 1 11.8254C1 13.9384 2.71226 15.6509 4.82544 15.6509C5.68651 15.6522 6.52261 15.3617 7.19735 14.8268C7.87207 15.3617 8.70819 15.6522 9.56926 15.6509C10.4303 15.6523 11.2665 15.3618 11.9412 14.8268C12.6159 15.3617 13.452 15.6522 14.3131 15.6509C15.1742 15.6523 16.0104 15.3618 16.6851 14.8268C17.3599 15.3618 18.196 15.6523 19.0571 15.6509C21.1702 15.6509 22.8825 13.9385 22.8825 11.8254C22.8825 9.71239 21.1702 8.00001 19.0571 8.00001ZM6.57144 14.2018C6.08398 14.5574 5.47501 14.7745 4.82544 14.7745C3.19536 14.7745 1.8763 13.4555 1.8763 11.8254C1.8763 10.1954 3.19536 8.87631 4.82544 8.87631C5.47501 8.87631 6.08361 9.09345 6.57144 9.44917C6.03396 10.1244 5.74215 10.9624 5.74395 11.8254C5.74435 12.6881 6.03592 13.5255 6.57144 14.2018ZM7.19747 13.5777C6.82154 13.0709 6.61914 12.4564 6.62037 11.8254C6.61879 11.1944 6.82122 10.5798 7.19747 10.0732C7.57366 10.5798 7.77608 11.1944 7.77457 11.8254C7.77576 12.4564 7.57337 13.0709 7.19747 13.5777ZM11.3154 14.2018C10.8089 14.5747 10.1962 14.7751 9.56727 14.7736C8.93967 14.7749 8.32828 14.5744 7.82326 14.2018C8.35883 13.5255 8.65041 12.6882 8.65075 11.8256C8.65255 10.9625 8.36074 10.1245 7.82326 9.4493C8.32824 9.0766 8.93965 8.87611 9.56727 8.87743C10.2216 8.87743 10.8261 9.08909 11.3154 9.4493C10.7779 10.1245 10.4861 10.9625 10.4879 11.8256C10.4883 12.6882 10.7798 13.5255 11.3154 14.2018ZM11.9412 13.5777C11.5652 13.0709 11.3628 12.4564 11.3641 11.8254C11.3625 11.1944 11.565 10.5798 11.9412 10.0732C12.3174 10.5798 12.5199 11.1944 12.5184 11.8254C12.5196 12.4564 12.3172 13.0709 11.9412 13.5777ZM16.0592 14.2018C15.5699 14.5622 14.9654 14.7736 14.3112 14.7736C13.657 14.7736 13.0564 14.5618 12.5671 14.2018C13.1027 13.5256 13.3943 12.6883 13.3946 11.8256C13.3964 10.9625 13.1046 10.1245 12.5671 9.4493C13.0564 9.08922 13.657 8.87743 14.3112 8.87743C14.9654 8.87743 15.5699 9.08909 16.0592 9.4493C15.5218 10.1246 15.23 10.9625 15.2317 11.8256C15.2321 12.6882 15.5237 13.5255 16.0592 14.2018ZM16.6852 13.5777C16.3093 13.0709 16.1069 12.4564 16.1081 11.8254C16.1065 11.1944 16.3089 10.5798 16.6852 10.0732C17.0614 10.5798 17.2638 11.1944 17.2623 11.8254C17.2635 12.4564 17.0611 13.0709 16.6852 13.5777ZM19.0571 14.7745C18.4073 14.7745 17.7985 14.5574 17.3111 14.2018C17.8467 13.5255 18.1382 12.6882 18.1386 11.8256C18.1404 10.9625 17.8486 10.1246 17.3111 9.4493C17.799 9.0937 18.4075 8.87643 19.0571 8.87643C20.687 8.87643 22.0063 10.1955 22.0063 11.8256C22.0063 13.4554 20.687 14.7745 19.0571 14.7745Z" fill="#518DD5"/>
</g>
<defs>
<clipPath id="clip0_1044_480">
<rect width="24" height="24" fill="white"/>
</clipPath>
</defs>
</svg>
