<svg width="37" height="37" viewBox="0 0 37 37" fill="none" xmlns="http://www.w3.org/2000/svg">
<path d="M4.08489 18.8296C4.25804 17.8851 5.01969 16.9194 6.24882 16.0858C8.46197 14.5848 10.9896 14.591 13.5197 14.4973C14.3593 14.4662 16.6139 14.4559 18.9863 14.4613C21.3587 14.4559 23.6134 14.4662 24.4529 14.4973C26.983 14.591 29.5106 14.5848 31.7239 16.0858C32.953 16.9194 33.7147 17.8851 33.8878 18.8296C34.0364 19.6404 34.0135 22.4226 33.842 24.3859C33.7516 25.4209 33.6596 25.9248 33.5222 26.1366C33.1078 26.7754 31.9112 27.3127 30.1511 27.6501C28.4993 27.9667 28.7449 27.96 18.9863 27.96C9.22772 27.96 9.47334 27.9667 7.82157 27.6501C6.06141 27.3127 4.86492 26.7754 4.45043 26.1366C4.31309 25.9248 4.22106 25.4209 4.13063 24.3859C3.95915 22.4226 3.93623 19.6404 4.08489 18.8296Z" stroke="white" stroke-width="1.5" stroke-linecap="round" stroke-linejoin="round"/>
<path d="M7.73633 14.46L9.7062 7.69513C9.88713 7.2451 10.2388 6.86923 10.7343 6.7007C15.5988 5.04638 22.3738 5.04638 27.2383 6.7007C27.7339 6.86923 28.0855 7.2451 28.2665 7.69513L30.2363 14.46" stroke="white" stroke-width="1.5" stroke-linecap="round" stroke-linejoin="round"/>
<path d="M4.73633 18.96L6.98633 19.71" stroke="white" stroke-width="1.5" stroke-linecap="round" stroke-linejoin="round"/>
<path d="M33.2363 18.96L30.9863 19.71" stroke="white" stroke-width="1.5" stroke-linecap="round" stroke-linejoin="round"/>
<path d="M12.9863 27.21L13.3548 26.2887C13.9028 24.9187 14.1768 24.2337 14.7482 23.8468C15.3196 23.46 16.0574 23.46 17.533 23.46H20.4397C21.9152 23.46 22.6531 23.46 23.2244 23.8468C23.7958 24.2337 24.0698 24.9187 24.6178 26.2887L24.9863 27.21" stroke="white" stroke-width="1.5" stroke-linecap="round" stroke-linejoin="round"/>
<path d="M11.4887 28.8034V30.0066C11.4888 31.3182 11.4314 31.5639 11.0355 31.9468C10.9196 32.0587 10.6841 32.2201 10.5123 32.3053C10.2113 32.4543 10.1104 32.46 7.77784 32.46C5.3929 32.46 5.35024 32.4574 4.98274 32.2914C4.77742 32.1985 4.51843 32.0131 4.40719 31.8792C4.01452 31.4067 3.99585 31.2673 3.99219 28.7788L3.99319 23.46" stroke="white" stroke-width="1.5" stroke-linecap="round"/>
<path d="M26.4844 28.8034V30.0066C26.4842 31.3182 26.5417 31.5639 26.9377 31.9468C27.0535 32.0587 27.289 32.2201 27.4609 32.3053C27.7618 32.4543 27.8627 32.46 30.1952 32.46C32.5802 32.46 32.6228 32.4574 32.9903 32.2914C33.1957 32.1985 33.4547 32.0131 33.5659 31.8792C33.9586 31.4067 33.9772 31.2673 33.9809 28.7788L33.9799 23.46" stroke="white" stroke-width="1.5" stroke-linecap="round"/>
<path d="M30.9863 14.46L33.2363 13.71" stroke="white" stroke-width="1.5" stroke-linecap="round" stroke-linejoin="round"/>
<path d="M6.98633 14.46L4.73633 13.71" stroke="white" stroke-width="1.5" stroke-linecap="round" stroke-linejoin="round"/>
</svg>
