<svg width="21" height="20" viewBox="0 0 21 20" fill="none" xmlns="http://www.w3.org/2000/svg">
<path d="M12.5852 17.3851L12.5943 17.3915C13.3814 17.8926 14.3158 18.1102 15.2433 18.0084C16.1708 17.9065 17.0357 17.4913 17.6953 16.8313L18.2682 16.2584C18.3952 16.1315 18.4959 15.9808 18.5646 15.815C18.6333 15.6492 18.6687 15.4714 18.6687 15.2919C18.6687 15.1124 18.6333 14.9347 18.5646 14.7688C18.4959 14.603 18.3952 14.4524 18.2682 14.3255L15.8516 11.9107C15.7247 11.7838 15.5741 11.683 15.4083 11.6143C15.2424 11.5456 15.0647 11.5102 14.8852 11.5102C14.7057 11.5102 14.5279 11.5456 14.3621 11.6143C14.1963 11.683 14.0456 11.7838 13.9187 11.9107C13.6625 12.1669 13.3151 12.3108 12.9528 12.3108C12.5905 12.3108 12.243 12.1669 11.9868 11.9107L8.12282 8.04586C7.86667 7.78963 7.72277 7.44217 7.72277 7.07987C7.72277 6.71757 7.86667 6.3701 8.12282 6.11388C8.24978 5.987 8.3505 5.83633 8.41922 5.67051C8.48794 5.50468 8.52331 5.32694 8.52331 5.14744C8.52331 4.96794 8.48794 4.79019 8.41922 4.62437C8.3505 4.45854 8.24978 4.30788 8.12282 4.18099L5.70716 1.76625C5.45094 1.51011 5.10347 1.36621 4.74117 1.36621C4.37887 1.36621 4.03141 1.51011 3.77518 1.76625L3.20133 2.33919C2.54148 2.99883 2.12642 3.86385 2.02473 4.79131C1.92304 5.71878 2.14081 6.65318 2.64205 7.44012L2.64752 7.44923C5.2947 11.3658 8.66814 14.7386 12.5852 17.3851V17.3851Z" stroke="#518DD5" stroke-width="1.4" stroke-linecap="round" stroke-linejoin="round"/>
</svg>
