<svg width="37" height="36" viewBox="0 0 37 36" fill="none" xmlns="http://www.w3.org/2000/svg">
<path d="M33.6758 18C33.6758 26.2842 26.96 33 18.6758 33C10.3915 33 3.67578 26.2842 3.67578 18C3.67578 9.71572 10.3915 3 18.6758 3C26.96 3 33.6758 9.71572 33.6758 18Z" stroke="white" stroke-width="1.5"/>
<path d="M29.0529 15.6188C27.5994 16.2551 25.4034 16.827 23.415 16.0752C20.5715 15 19.1097 15 18.6758 15C18.2418 15 16.7801 15 13.9365 16.0752C11.9482 16.827 9.75216 16.2551 8.29857 15.6188M29.1758 19.8822C25.9577 20.4946 21.0876 22.317 20.9615 28.5M16.3901 28.5C16.2639 22.317 11.3939 20.4946 8.17578 19.8822" stroke="white" stroke-width="1.5" stroke-linejoin="round"/>
<path d="M18.6873 19.5H18.6738" stroke="white" stroke-width="2" stroke-linecap="round" stroke-linejoin="round"/>
</svg>
