<svg width="22" height="22" viewBox="0 0 22 22" fill="none" xmlns="http://www.w3.org/2000/svg">
<circle cx="11" cy="11" r="11" fill="#518DD5"/>
<g clip-path="url(#clip0_1044_928)">
<path d="M16.28 11.125C16.28 10.735 16.245 10.36 16.18 10H11V12.13H13.96C13.83 12.815 13.44 13.395 12.855 13.785V15.17H14.64C15.68 14.21 16.28 12.8 16.28 11.125Z" fill="white"/>
<path d="M11 16.5C12.485 16.5 13.73 16.01 14.64 15.17L12.855 13.785C12.365 14.115 11.74 14.315 11 14.315C9.57003 14.315 8.35503 13.35 7.92003 12.05H6.09003V13.47C6.99503 15.265 8.85003 16.5 11 16.5Z" fill="white"/>
<path d="M7.92 12.045C7.81 11.715 7.745 11.365 7.745 11C7.745 10.635 7.81 10.285 7.92 9.95503V8.53503H6.09C5.715 9.27503 5.5 10.11 5.5 11C5.5 11.89 5.715 12.725 6.09 13.465L7.515 12.355L7.92 12.045Z" fill="white"/>
<path d="M11 7.69C11.81 7.69 12.53 7.97 13.105 8.51L14.68 6.935C13.725 6.045 12.485 5.5 11 5.5C8.85003 5.5 6.99503 6.735 6.09003 8.535L7.92003 9.955C8.35503 8.655 9.57003 7.69 11 7.69Z" fill="white"/>
</g>
<defs>
<clipPath id="clip0_1044_928">
<rect width="12" height="12" fill="white" transform="translate(5 5)"/>
</clipPath>
</defs>
</svg>
