<svg width="24" height="24" viewBox="0 0 24 24" fill="none" xmlns="http://www.w3.org/2000/svg">
<path d="M19.6478 7.71573C21.1001 8.51047 22.7438 9.90783 22.5724 11.7707C22.3732 13.4973 20.7638 14.7025 19.3257 15.4287C15.1265 17.4359 9.22935 17.4973 4.89378 15.7436C3.42866 15.1338 1.78419 14.0856 1.16801 12.5104C0.696114 11.2159 1.27084 9.86718 2.23696 8.96961C4.25767 7.13383 6.83319 6.5041 9.48363 6.14061C12.3605 5.79147 15.3879 6.09996 17.9635 6.98317C18.539 7.19601 19.1065 7.42877 19.6478 7.71573Z" fill="#518DD5"/>
<path d="M14.052 12.7711C14.217 13.62 13.7714 14.3255 13.4016 15.011C12.9902 15.6479 12.3127 16.1956 11.4972 16.1143C9.71042 16.0895 7.93564 15.8175 6.22344 15.306C6.14466 15.2856 6.07622 15.2367 6.03133 15.1689C5.99706 15.0732 6.04568 14.9839 6.11424 14.9226C7.62798 13.6966 9.42948 13.1282 11.2103 12.532C11.8743 12.3399 12.5805 12.1342 13.3266 12.2307C13.6343 12.2713 13.9428 12.4833 14.052 12.7711ZM20.2919 9.141C21.1409 9.83928 21.9085 10.7918 21.6478 11.9421C21.223 13.6408 19.3736 14.5455 17.9013 15.1202C17.1002 15.3873 16.2919 15.6615 15.4151 15.7436C15.3601 15.7372 15.2708 15.7508 15.2573 15.6687L15.278 15.573C16.5239 14.1685 17.4693 12.5934 18.2983 10.9975C18.6817 10.2785 19.038 9.53876 19.3665 8.81258C19.4071 8.76608 19.459 8.7307 19.5171 8.70975C19.8264 8.73686 20.0456 8.97599 20.2919 9.141ZM8.33981 7.33232L8.31191 7.43515C6.51041 9.48296 5.32588 11.86 4.20273 14.2227C3.98352 14.4283 3.77068 14.1541 3.5722 14.0656C2.5726 13.408 1.66866 12.3462 1.92932 11.086C2.34702 9.44231 4.03852 8.56468 5.45023 7.96922C6.29782 7.64202 7.17693 7.40321 8.07357 7.25659C8.16843 7.25739 8.29198 7.24384 8.33981 7.33232ZM17.278 7.66153C17.3808 7.71574 17.5044 7.73646 17.5657 7.83929C17.6207 7.95567 17.5107 8.0314 17.4494 8.10633C16.0313 9.21593 14.4083 9.83211 12.7503 10.3734C11.9077 10.5782 11.058 10.9489 10.1198 10.7432C10.0067 10.7143 9.90049 10.663 9.80752 10.5924C9.71456 10.5217 9.6367 10.4332 9.57854 10.3319C9.34578 9.68783 9.66065 9.01665 9.93486 8.45547C10.2983 7.75001 10.9416 6.921 11.832 6.90745C13.7507 6.8947 15.5594 7.18166 17.278 7.66153Z" fill="white"/>
</svg>
