<svg width="22" height="22" viewBox="0 0 22 22" fill="none" xmlns="http://www.w3.org/2000/svg">
<path d="M11.0089 13.3447C12.1809 13.3447 13.131 12.3945 13.131 11.2225C13.131 10.0505 12.1809 9.10034 11.0089 9.10034C9.83684 9.10034 8.88672 10.0505 8.88672 11.2225C8.88672 12.3945 9.83684 13.3447 11.0089 13.3447Z" fill="#518DD5"/>
<path d="M15.9672 7.47872C15.856 7.18217 15.7078 6.96903 15.4946 6.74662C15.2722 6.52421 15.0591 6.38521 14.7625 6.274C14.5401 6.1906 14.2065 6.08866 13.5856 6.05159C12.9184 6.02379 12.7145 6.01453 11.0186 6.01453C9.32276 6.01453 9.11889 6.01453 8.45166 6.05159C7.83077 6.0794 7.49715 6.18133 7.27474 6.274C6.9782 6.38521 6.76506 6.53348 6.54265 6.74662C6.32024 6.96903 6.18123 7.18217 6.07003 7.47872C5.98662 7.70113 5.88469 8.03475 5.84762 8.65564C5.81982 9.32287 5.81055 9.52674 5.81055 11.2226C5.81055 12.9185 5.81055 13.1224 5.84762 13.7896C5.87542 14.4105 5.97736 14.7441 6.07003 14.9665C6.18123 15.2631 6.3295 15.4762 6.54265 15.6986C6.76506 15.921 6.9782 16.06 7.27474 16.1712C7.49715 16.2546 7.83077 16.3566 8.45166 16.3936C9.11889 16.4214 9.32276 16.4307 11.0186 16.4307C12.7145 16.4307 12.9184 16.4307 13.5856 16.3936C14.2065 16.3658 14.5401 16.2639 14.7625 16.1712C15.0591 16.06 15.2722 15.9117 15.4946 15.6986C15.717 15.4762 15.856 15.2631 15.9672 14.9665C16.0506 14.7441 16.1526 14.4105 16.1897 13.7896C16.2175 13.1224 16.2267 12.9185 16.2267 11.2226C16.2267 9.52674 16.2267 9.32287 16.1897 8.65564C16.1619 8.03475 16.0506 7.70113 15.9672 7.47872ZM11.0094 14.4939C9.20229 14.4939 7.74736 13.0297 7.74736 11.2319C7.74736 9.43407 9.21156 7.96987 11.0094 7.96987C12.8164 7.96987 14.2714 9.43407 14.2714 11.2319C14.2714 13.0297 12.8072 14.4939 11.0094 14.4939ZM14.4011 8.59077C13.9748 8.59077 13.6412 8.24789 13.6412 7.83087C13.6412 7.40458 13.9841 7.07097 14.4011 7.07097C14.8274 7.07097 15.161 7.41385 15.161 7.83087C15.1703 8.25715 14.8274 8.59077 14.4011 8.59077Z" fill="#518DD5"/>
<path d="M11 0C4.92081 0 0 4.92081 0 11C0 17.0792 4.92081 22 11 22C17.0792 22 22 17.0792 22 11C22 4.92081 17.0699 0 11 0ZM17.3294 13.845C17.3016 14.5215 17.1904 14.9848 17.0329 15.3926C16.866 15.8096 16.6529 16.171 16.3008 16.5232C15.9486 16.8753 15.5965 17.0977 15.1702 17.2553C14.7624 17.4128 14.2991 17.5147 13.6226 17.5518C12.9461 17.5796 12.7329 17.5889 11 17.5889C9.26706 17.5889 9.05392 17.5796 8.37742 17.5518C7.70093 17.524 7.23757 17.4128 6.82982 17.2553C6.4128 17.0885 6.05139 16.8753 5.69924 16.5232C5.34709 16.171 5.12468 15.8189 4.96714 15.3926C4.8096 14.9848 4.70767 14.5215 4.6706 13.845C4.6428 13.1685 4.63353 12.9553 4.63353 11.2224C4.63353 9.48947 4.6428 9.27633 4.6706 8.59983C4.6984 7.92334 4.8096 7.45998 4.96714 7.05223C5.13395 6.63522 5.34709 6.2738 5.69924 5.92165C6.05139 5.5695 6.40354 5.34709 6.82982 5.18955C7.23757 5.03201 7.70093 4.93008 8.37742 4.89301C9.05392 4.86521 9.26706 4.85594 11 4.85594C12.7329 4.85594 12.9461 4.86521 13.6226 4.89301C14.2991 4.92081 14.7624 5.03201 15.1702 5.18955C15.5872 5.35636 15.9486 5.5695 16.3008 5.92165C16.6529 6.2738 16.8753 6.62595 17.0329 7.05223C17.1904 7.45998 17.2923 7.92334 17.3294 8.59983C17.3665 9.27633 17.3665 9.48947 17.3665 11.2224C17.3665 12.9553 17.3572 13.1685 17.3294 13.845Z" fill="#518DD5"/>
</svg>
