<svg width="21" height="20" viewBox="0 0 21 20" fill="none" xmlns="http://www.w3.org/2000/svg">
<path d="M17.1945 8.95655C17.1945 14.3354 11.6853 17.6491 10.5404 18.2803C10.477 18.3153 10.4057 18.3337 10.3333 18.3337C10.2609 18.3337 10.1896 18.3153 10.1262 18.2803C8.98044 17.6491 3.47296 14.3354 3.47296 8.95655C3.47296 4.66857 6.04575 1.66699 10.3337 1.66699C14.6217 1.66699 17.1945 4.66857 17.1945 8.95655Z" stroke="#518DD5" stroke-width="1.4" stroke-linecap="round" stroke-linejoin="round"/>
<path d="M6.90363 8.52804C6.90363 9.43783 7.26504 10.3104 7.90836 10.9537C8.55168 11.597 9.42421 11.9584 10.334 11.9584C11.2438 11.9584 12.1163 11.597 12.7597 10.9537C13.403 10.3104 13.7644 9.43783 13.7644 8.52804C13.7644 7.61824 13.403 6.74571 12.7597 6.10239C12.1163 5.45907 11.2438 5.09766 10.334 5.09766C9.42421 5.09766 8.55168 5.45907 7.90836 6.10239C7.26504 6.74571 6.90363 7.61824 6.90363 8.52804V8.52804Z" stroke="#518DD5" stroke-width="1.4" stroke-linecap="round" stroke-linejoin="round"/>
</svg>
