<svg width="24" height="24" viewBox="0 0 24 24" fill="none" xmlns="http://www.w3.org/2000/svg">
<g clip-path="url(#clip0_1044_473)">
<path fill-rule="evenodd" clip-rule="evenodd" d="M12 22.9412C5.95743 22.9412 1.05884 18.0425 1.05884 12C1.05884 5.95743 5.95743 1.05884 12 1.05884C18.0427 1.05884 22.9412 5.95743 22.9412 12C22.9412 18.0425 18.0427 22.9412 12 22.9412Z" fill="#518DD5"/>
<path fill-rule="evenodd" clip-rule="evenodd" d="M12.003 13.6527L3.11996 17.3294C4.99159 20.4743 8.38324 22.3932 12.0408 22.3743C15.6891 22.3648 19.0713 20.4266 20.9239 17.2725L12.003 13.6527ZM10.4643 11.0561L11.8798 1.67914C8.23159 1.72658 4.86845 3.69321 3.04438 6.85688C1.21085 10.0205 1.1918 13.9157 2.98748 17.0984L10.4643 11.0561ZM13.4945 11.1805L21.0567 17.0327C22.8144 13.8501 22.7763 9.98331 20.9429 6.8387C20.0465 5.29254 18.7652 4.00478 17.2235 3.10075C15.6818 2.19672 13.9323 1.70722 12.1453 1.67989L13.4945 11.1805Z" fill="white"/>
</g>
<defs>
<clipPath id="clip0_1044_473">
<rect width="24" height="24" fill="white"/>
</clipPath>
</defs>
</svg>
