<svg width="22" height="22" viewBox="0 0 22 22" fill="none" xmlns="http://www.w3.org/2000/svg">
<circle cx="11" cy="11" r="11" fill="#518DD5"/>
<path d="M13.5539 13.1287V8.1228C14.5622 8.83785 15.7726 9.22111 17.0135 9.21828V7.31312C16.2804 7.16008 15.6175 6.7756 15.1247 6.21764C14.7312 5.96599 14.3936 5.6377 14.1326 5.25281C13.8717 4.86792 13.6928 4.4345 13.6069 3.979H11.7857V13.8385C11.768 14.2677 11.6154 14.6807 11.3493 15.0203C11.0831 15.3598 10.7166 15.6089 10.3006 15.7331C9.88467 15.8572 9.43991 15.8502 9.02817 15.7129C8.61643 15.5757 8.18199 15.303 7.68199 14.803C7.18199 14.303 7.26217 14.4075 7.07061 13.9871C6.87905 13.5667 6.83517 13.0951 6.94595 12.6472C7.05673 12.1993 7.31581 11.8009 7.68199 11.5153C8.04818 11.2297 8.50044 11.0734 8.96686 11.0711C9.17605 11.0729 9.38383 11.105 9.58361 11.1664V9.26114C8.69733 9.276 7.83458 9.54544 7.10053 10.0366C6.36649 10.5278 5.79288 11.2195 5.44963 12.0273C5.10639 12.8352 5.00834 13.7243 5.16745 14.5863C5.32656 15.4483 5.73595 16.2459 6.34571 16.8819C7.12018 17.3989 8.03736 17.6668 8.97173 17.6488C11.4986 17.6488 13.5486 15.6266 13.5539 13.1287Z" fill="white"/>
</svg>
