<svg width="21" height="20" viewBox="0 0 21 20" fill="none" xmlns="http://www.w3.org/2000/svg">
<path d="M18.667 5.94958V14.2829C18.667 14.8355 18.4475 15.3654 18.0568 15.7561C17.6661 16.1468 17.1362 16.3663 16.5836 16.3663H4.08364C3.5311 16.3663 3.0012 16.1468 2.6105 15.7561C2.2198 15.3654 2.00031 14.8355 2.00031 14.2829V5.94958" stroke="#518DD5" stroke-width="1.4" stroke-linecap="round" stroke-linejoin="round"/>
<path d="M18.667 5.94954C18.667 5.39701 18.4475 4.86711 18.0568 4.47641C17.6661 4.0857 17.1362 3.86621 16.5836 3.86621H4.08364C3.5311 3.86621 3.0012 4.0857 2.6105 4.47641C2.2198 4.86711 2.00031 5.39701 2.00031 5.94954L9.22947 10.4634C9.56058 10.6704 9.94318 10.7801 10.3336 10.7801C10.7241 10.7801 11.1067 10.6704 11.4378 10.4634L18.667 5.94954Z" stroke="#518DD5" stroke-width="1.4" stroke-linecap="round" stroke-linejoin="round"/>
</svg>
