<svg width="37" height="36" viewBox="0 0 37 36" fill="none" xmlns="http://www.w3.org/2000/svg">
<path d="M4.42578 18C4.42578 11.2825 4.42578 7.92373 6.51264 5.83686C8.59952 3.75 11.9583 3.75 18.6758 3.75C25.3932 3.75 28.752 3.75 30.839 5.83686C32.9258 7.92373 32.9258 11.2825 32.9258 18C32.9258 24.7175 32.9258 28.0763 30.839 30.1632C28.752 32.25 25.3932 32.25 18.6758 32.25C11.9583 32.25 8.59952 32.25 6.51264 30.1632C4.42578 28.0763 4.42578 24.7175 4.42578 18Z" stroke="white" stroke-width="1.5"/>
<path d="M11.9258 25.5C15.4233 21.8367 21.8906 21.6642 25.4258 25.5M22.4184 14.25C22.4184 16.321 20.7371 18 18.663 18C16.5891 18 14.9077 16.321 14.9077 14.25C14.9077 12.1789 16.5891 10.5 18.663 10.5C20.7371 10.5 22.4184 12.1789 22.4184 14.25Z" stroke="white" stroke-width="1.5" stroke-linecap="round"/>
</svg>
