<svg width="24" height="24" viewBox="0 0 24 24" fill="none" xmlns="http://www.w3.org/2000/svg">
<path d="M11.3732 18.3384C10.3244 17.6831 9.55213 15.4213 9.55213 12.7343C9.55213 12.6356 9.55254 12.5383 9.55505 12.4413L9.5563 12.4426C6.6397 11.9853 4.53211 10.7321 4.47832 9.25042L4.46956 9.26748C3.75563 10.1525 3.34821 11.1756 3.34821 12.2657C3.34821 15.4737 6.8774 18.1021 11.354 18.3347L11.3732 18.3384ZM2 12.5C2 8.91048 6.47706 6 12 6C17.5229 6 22 8.91048 22 12.5C22 16.0895 17.5229 19 12 19C6.47706 19 2 16.0895 2 12.5ZM12 6.93784C13.0663 6.93784 13.9729 8.5514 14.309 10.8032L14.3103 10.7999C16.3845 10.4779 17.8369 9.73432 17.8369 8.8697C17.8369 7.70884 15.2235 6.76933 12 6.76933C8.77648 6.76933 6.16305 7.70926 6.16305 8.8697C6.16305 9.73432 7.6151 10.4774 9.68974 10.7999L9.69099 10.8032C10.0271 8.55182 10.9341 6.93784 12 6.93784ZM12.6455 18.3347C17.1222 18.1021 20.6518 15.4737 20.6518 12.2657C20.6518 11.1756 20.244 10.1525 19.5304 9.26748L19.5217 9.25042C19.4679 10.7321 17.3607 11.9853 14.4437 12.4426L14.445 12.4413C14.447 12.5383 14.4479 12.6356 14.4479 12.7343C14.4479 15.4213 13.6747 17.6831 12.6268 18.3384L12.6455 18.3347ZM12 10.9705C12.4779 10.9705 12.942 10.9501 13.3862 10.911L13.3857 10.9114C13.1647 9.46803 12.6276 8.44946 12 8.44946C11.3724 8.44946 10.8357 9.46803 10.6143 10.9114L10.6138 10.911C11.058 10.9501 11.5221 10.9705 12 10.9705ZM12 16.3155C12.8028 16.3155 13.4575 14.6486 13.4925 12.5583L13.4967 12.5595C12.501 12.651 11.499 12.651 10.5033 12.5595L10.5079 12.5583C10.5425 14.6491 11.1972 16.3155 12 16.3155Z" fill="#518DD5"/>
</svg>
