<svg width="24" height="24" viewBox="0 0 24 24" fill="none" xmlns="http://www.w3.org/2000/svg">
<path d="M18.0202 11.1184C17.3421 11.1184 16.7905 11.5248 16.7905 12.0245C16.7905 12.5242 17.3421 12.9307 18.0202 12.9307C18.7131 12.9307 19.2764 12.5242 19.2764 12.0245C19.2764 11.5248 18.7131 11.1184 18.0202 11.1184ZM18.0202 12.6365C17.7807 12.6365 17.5989 12.3737 17.5989 12.0253C17.5989 11.6555 17.7768 11.3881 18.0202 11.3881C18.2636 11.3881 18.4423 11.673 18.4415 12.0253C18.44 12.3561 18.248 12.6365 18.0202 12.6365ZM8.70841 11.1184C8.03035 11.1184 7.47791 11.5248 7.47791 12.0245C7.47791 12.5242 8.03035 12.9307 8.70841 12.9307C9.40129 12.9307 9.96465 12.5242 9.96465 12.0245C9.96465 11.5248 9.40129 11.1184 8.70841 11.1184ZM8.70841 12.6365C8.46808 12.6365 8.28706 12.3737 8.28706 12.0253C8.28706 11.6555 8.46418 11.3881 8.70841 11.3881C8.94249 11.3881 9.13053 11.673 9.12975 12.0253C9.12975 12.3561 8.93625 12.6365 8.70841 12.6365ZM15.29 11.427H15.5951L15.0606 12.447L14.4504 11.427H14.8827V11.2032H13.1544V11.427H13.5609L14.3482 12.8703H15.2892L16.0773 11.427H16.4831V11.2032H15.29V11.427ZM5.87757 11.4484H6.18968L5.66768 12.4027L5.0973 11.4484H5.51396V11.1802H3.74118V11.4461H4.15629L4.93656 12.8787L4.94202 12.8894H5.908L5.91424 12.8787L6.69452 11.4461H7.10962V11.1802H5.87757V11.4484ZM5.67626 12.4371L5.89552 12.036L5.68016 12.4432L5.67626 12.4371ZM5.2752 11.7915L5.05906 11.4408H5.06531L5.2752 11.7915ZM12.2688 12.5968H11.8357V11.427H12.243V11.2032H10.6411V11.427H11.0484V12.5968H10.6411V12.8703H13.0561V12.0971H12.8025C12.7967 12.2318 12.7378 12.359 12.6384 12.4521C12.5389 12.5453 12.4064 12.5971 12.2688 12.5968ZM18.319 4.53993L17.2696 5.56986C17.7926 5.99792 18.2638 6.48319 18.6741 7.0162L19.7298 5.98474L20.1761 5.5477C20.6395 6.09714 21.0455 6.69072 21.3879 7.31952H21.6586V2.63287H16.8794V2.898C17.5417 3.24439 18.1659 3.6566 18.742 4.12811L18.319 4.53993Z" fill="#518DD5"/>
<path d="M20.2089 6.62959L19.136 7.68016C20.2888 9.50927 20.7095 11.6914 20.3171 13.8062C19.9247 15.9209 18.747 17.8187 17.0108 19.1338C15.2746 20.449 13.1028 21.0884 10.9138 20.929C8.72476 20.7696 6.67345 19.8226 5.15503 18.2704C3.63662 16.7182 2.75854 14.6708 2.68995 12.5224C2.62136 10.3741 3.36713 8.27689 4.78357 6.63489C6.20001 4.99289 8.18691 3.92226 10.3615 3.62927C12.536 3.33627 14.7444 3.84165 16.5611 5.04802L17.6246 4.00586C15.5237 2.52826 12.9345 1.87341 10.3657 2.16999C7.79685 2.46657 5.43416 3.69313 3.74188 5.60866C2.0496 7.52419 1.15008 9.99018 1.22008 12.5221C1.29008 15.054 2.32454 17.4687 4.12018 19.2918C5.91583 21.1148 8.34283 22.2144 10.9243 22.3745C13.5057 22.5345 16.055 21.7434 18.0711 20.1567C20.0872 18.57 21.4245 16.3023 21.82 13.7992C22.2156 11.2962 21.6409 8.73883 20.2089 6.62959Z" fill="#518DD5"/>
</svg>
