<svg width="167" height="44" viewBox="0 0 167 44" fill="none" xmlns="http://www.w3.org/2000/svg">
<path d="M0 19.2659C0 11.3473 6.4193 4.92798 14.3379 4.92798V24.734C14.3379 32.6526 7.9186 39.0719 0 39.0719V19.2659Z" fill="#518DD5"/>
<path d="M16.4178 12.7191C16.4178 8.41618 19.906 4.92798 24.2089 4.92798C28.5118 4.92798 32 8.41617 32 12.7191V13.1689C32 17.4718 28.5118 20.96 24.2089 20.96C19.906 20.96 16.4178 17.4718 16.4178 13.1689V12.7191Z" fill="#5278A5"/>
<path d="M16.4178 30.8311C16.4178 26.5282 19.906 23.04 24.2089 23.04C28.5118 23.04 32 26.5282 32 30.8311V31.281C32 35.5839 28.5118 39.0721 24.2089 39.0721C19.906 39.0721 16.4178 35.5839 16.4178 31.281V30.8311Z" fill="#518DD5"/>
<path d="M55.824 34.968C54.12 34.968 52.518 34.632 51.018 33.96C49.518 33.276 48.198 32.334 47.058 31.134C45.93 29.934 45.042 28.548 44.394 26.976C43.758 25.392 43.44 23.7 43.44 21.9C43.44 20.088 43.758 18.396 44.394 16.824C45.042 15.24 45.93 13.854 47.058 12.666C48.198 11.466 49.518 10.53 51.018 9.858C52.518 9.174 54.12 8.832 55.824 8.832C57.864 8.832 59.742 9.306 61.458 10.254C63.174 11.19 64.596 12.444 65.724 14.016L61.8 16.122C61.092 15.246 60.21 14.544 59.154 14.016C58.11 13.488 57 13.224 55.824 13.224C54.72 13.224 53.682 13.452 52.71 13.908C51.738 14.352 50.886 14.976 50.154 15.78C49.422 16.572 48.852 17.496 48.444 18.552C48.036 19.596 47.832 20.712 47.832 21.9C47.832 23.1 48.036 24.222 48.444 25.266C48.864 26.31 49.44 27.234 50.172 28.038C50.904 28.83 51.75 29.454 52.71 29.91C53.682 30.354 54.72 30.576 55.824 30.576C57.024 30.576 58.14 30.312 59.172 29.784C60.216 29.244 61.092 28.536 61.8 27.66L65.724 29.784C64.596 31.344 63.174 32.598 61.458 33.546C59.742 34.494 57.864 34.968 55.824 34.968ZM81.7437 16.5H86.1357V34.5H81.7437L81.5457 32.268C81.0537 33.072 80.3997 33.726 79.5837 34.23C78.7797 34.722 77.8257 34.968 76.7217 34.968C75.3897 34.968 74.1417 34.716 72.9777 34.212C71.8137 33.708 70.7877 33.012 69.8997 32.124C69.0237 31.236 68.3337 30.21 67.8297 29.046C67.3377 27.882 67.0917 26.634 67.0917 25.302C67.0917 24.018 67.3257 22.812 67.7937 21.684C68.2737 20.556 68.9397 19.566 69.7917 18.714C70.6437 17.862 71.6277 17.196 72.7437 16.716C73.8597 16.236 75.0597 15.996 76.3437 15.996C77.5317 15.996 78.5937 16.26 79.5297 16.788C80.4777 17.316 81.2817 17.988 81.9417 18.804L81.7437 16.5ZM76.6137 30.738C77.5497 30.738 78.3777 30.504 79.0977 30.036C79.8177 29.568 80.3817 28.938 80.7897 28.146C81.1977 27.342 81.4017 26.46 81.4017 25.5C81.4017 24.528 81.1977 23.646 80.7897 22.854C80.3817 22.05 79.8117 21.414 79.0797 20.946C78.3597 20.478 77.5377 20.244 76.6137 20.244C75.6897 20.244 74.8437 20.484 74.0757 20.964C73.3197 21.432 72.7137 22.062 72.2577 22.854C71.8137 23.646 71.5917 24.528 71.5917 25.5C71.5917 26.472 71.8197 27.354 72.2757 28.146C72.7317 28.938 73.3377 29.568 74.0937 30.036C74.8617 30.504 75.7017 30.738 76.6137 30.738ZM89.7405 34.5L89.7225 16.5H94.1145L94.1325 18.102C94.7445 17.454 95.4765 16.944 96.3285 16.572C97.1805 16.188 98.0985 15.996 99.0825 15.996C99.7425 15.996 100.403 16.092 101.063 16.284L99.3345 20.712C98.8785 20.532 98.4225 20.442 97.9665 20.442C97.2585 20.442 96.6105 20.616 96.0225 20.964C95.4465 21.3 94.9845 21.762 94.6365 22.35C94.3005 22.926 94.1325 23.568 94.1325 24.276V34.5H89.7405ZM117.914 9.3H122.306V34.5H117.914V23.196H107.474V34.5H103.082V9.3H107.474V18.804H117.914V9.3ZM125.917 27.84V16.5H130.309V26.688C130.309 27.396 130.483 28.044 130.831 28.632C131.179 29.208 131.641 29.67 132.217 30.018C132.805 30.354 133.447 30.522 134.143 30.522C134.863 30.522 135.511 30.354 136.087 30.018C136.663 29.67 137.125 29.208 137.473 28.632C137.821 28.044 137.995 27.396 137.995 26.688V16.5H142.387L142.405 34.5H138.013L137.995 32.862C137.371 33.51 136.633 34.026 135.781 34.41C134.929 34.782 134.017 34.968 133.045 34.968C131.737 34.968 130.543 34.65 129.463 34.014C128.383 33.366 127.519 32.508 126.871 31.44C126.235 30.36 125.917 29.16 125.917 27.84ZM155.689 15.996C157.441 15.996 159.037 16.422 160.477 17.274C161.917 18.126 163.063 19.272 163.915 20.712C164.767 22.14 165.193 23.724 165.193 25.464C165.193 26.772 164.947 28.002 164.455 29.154C163.963 30.306 163.279 31.32 162.403 32.196C161.539 33.06 160.531 33.738 159.379 34.23C158.239 34.722 157.009 34.968 155.689 34.968C154.561 34.968 153.559 34.716 152.683 34.212C151.819 33.696 151.093 33.03 150.505 32.214V34.5H146.113V7.5H150.505V18.75C151.093 17.934 151.819 17.274 152.683 16.77C153.559 16.254 154.561 15.996 155.689 15.996ZM155.635 30.72C156.571 30.72 157.417 30.486 158.173 30.018C158.941 29.538 159.553 28.902 160.009 28.11C160.465 27.318 160.693 26.436 160.693 25.464C160.693 24.504 160.465 23.628 160.009 22.836C159.553 22.032 158.941 21.396 158.173 20.928C157.405 20.46 156.559 20.226 155.635 20.226C154.723 20.226 153.907 20.466 153.187 20.946C152.467 21.414 151.903 22.05 151.495 22.854C151.087 23.646 150.883 24.516 150.883 25.464C150.883 26.436 151.087 27.324 151.495 28.128C151.903 28.92 152.467 29.55 153.187 30.018C153.907 30.486 154.723 30.72 155.635 30.72Z" fill="#383838"/>
</svg>
