<svg width="32" height="36" viewBox="0 0 32 36" fill="none" xmlns="http://www.w3.org/2000/svg">
<path d="M0 15.2659C0 7.34728 6.4193 0.927979 14.3379 0.927979V20.734C14.3379 28.6526 7.9186 35.0719 0 35.0719V15.2659Z" fill="#518DD5"/>
<path d="M16.4178 8.71908C16.4178 4.41618 19.906 0.927979 24.2089 0.927979C28.5118 0.927979 32 4.41617 32 8.71907V9.1689C32 13.4718 28.5118 16.96 24.2089 16.96C19.906 16.96 16.4178 13.4718 16.4178 9.16891V8.71908Z" fill="#5278A5"/>
<path d="M16.4178 26.8311C16.4178 22.5282 19.906 19.04 24.2089 19.04C28.5118 19.04 32 22.5282 32 26.8311V27.281C32 31.5839 28.5118 35.0721 24.2089 35.0721C19.906 35.0721 16.4178 31.5839 16.4178 27.281V26.8311Z" fill="#518DD5"/>
</svg>
